PathFileType	4	(X/Y/Z)	/Users/niels/Desktop/University/Third Semester/Perception and Action/Exam/Gymnastics Motion Tracking/Code for Gym Tracking/Analyzed Data/Webcam_Backflip/id1_5_trajectory_Sports2D/id1_5_trajectory_Sports2D_px_person00.trc
DataRate	CameraRate	NumFrames	NumMarkers	Units	OrigDataRate	OrigDataStartFrame	OrigNumFrames
29.87551867219917	29.87551867219917	7	22	m	29.87551867219917	90	241
Frame#	Time	Hip			RHip			RKnee			RAnkle			RBigToe			RSmallToe			RHeel			LHip			LKnee			LAnkle			LBigToe			LSmallToe			LHeel			Neck			Head			Nose			RShoulder			RElbow			RWrist			LShoulder			LElbow			LWrist		
		X1	Y1	Z1	X2	Y2	Z2	X3	Y3	Z3	X4	Y4	Z4	X5	Y5	Z5	X6	Y6	Z6	X7	Y7	Z7	X8	Y8	Z8	X9	Y9	Z9	X10	Y10	Z10	X11	Y11	Z11	X12	Y12	Z12	X13	Y13	Z13	X14	Y14	Z14	X15	Y15	Z15	X16	Y16	Z16	X17	Y17	Z17	X18	Y18	Z18	X19	Y19	Z19	X20	Y20	Z20	X21	Y21	Z21	X22	Y22	Z22
90	3.0125	0.8367893223755912	-0.4310331874050386	0.0	0.8351996237189965	-0.4325561955194962	0.0	0.8113995757360207	-0.5476584568817279	0.0	0.7595124739575638	-0.6505390008508579	0.0	0.7764263126204122	-0.6997035000425901	0.0	0.7673568840325431	-0.6937243603262472	0.0	0.7422018330581576	-0.653758906755048	0.0	0.8395485675243304	-0.42888308828106153	0.0	0.8153537659144682	-0.5428371104172154	0.0	0.7706663995644394	-0.6449742526056096	0.0	0.7952094191711638	-0.6918325673403275	0.0	0.7895482961195321	-0.6821448357262571	0.0	0.7558886941815265	-0.6494693540607294	0.0	0.9781405425774107	-0.4011434031461988	0.0	1.0604213901753365	-0.4174486540892726	0.0	1.0212455336906745	-0.43481156753722194	0.0	0.9642106433919602	-0.4019255089893366	0.0	0.9471158944890724	-0.46014095754515466	0.0	0.9638696410916096	-0.5134971462819373	0.0	0.9663049729583906	-0.38935527512009893	0.0	0.8835161286780925	-0.41116040944144117	0.0	0.8898223734003637	-0.48418819435721927	0.0
91	3.0459722222222223	0.8307027117643044	-0.48058413533300465	0.0	0.8294759250740394	-0.4811513069178065	0.0	0.8176912819207363	-0.5986429957994546	0.0	0.7760834873664935	-0.7108862541509052	0.0	0.7970585903285374	-0.7527006895896641	0.0	0.7882600349364687	-0.7500145903148677	0.0	0.7610524849942201	-0.7181004695489136	0.0	0.8339378259880678	-0.4783359109563159	0.0	0.8270923315544171	-0.5946085877942873	0.0	0.7976337285049463	-0.7058886243742228	0.0	0.826711286725151	-0.743886293924433	0.0	0.8199785907819825	-0.7368581006935693	0.0	0.7849512520903965	-0.7151296313456831	0.0	0.9627558204368662	-0.41949891638642817	0.0	1.0445213510818918	-0.42375709804076034	0.0	1.008402016608503	-0.44539026851149077	0.0	0.9517034161371125	-0.421985042532334	0.0	0.9592588631031104	-0.47738078811607293	0.0	0.9975087349800564	-0.5178806615808637	0.0	0.9517333673679772	-0.4093501852269506	0.0	0.8745754476870391	-0.427335544850203	0.0	0.8919723260960762	-0.4861667549224331	0.0
92	3.0794444444444444	0.827637302754582	-0.5324160744228388	0.0	0.8260968915155524	-0.5321167427688326	0.0	0.823376423459829	-0.6504820304419753	0.0	0.7871667053218157	-0.7660200269336502	0.0	0.8115881391542239	-0.8009112208196184	0.0	0.8030521620744324	-0.8009477496186644	0.0	0.7745462762252256	-0.7757023773728347	0.0	0.8317995890959082	-0.5301223862783396	0.0	0.8406198489233677	-0.6469973704419452	0.0	0.8210906452632383	-0.7613642320537065	0.0	0.8510207608061293	-0.7919426133426067	0.0	0.844148697937413	-0.7873901283242523	0.0	0.8100335395627998	-0.7734269706237935	0.0	0.9457585966725358	-0.4434532681463243	0.0	1.0257529065667972	-0.43506917417033747	0.0	0.9938786321854728	-0.46051695566391354	0.0	0.9372052176048354	-0.4464924271355853	0.0	0.9668777124081271	-0.49032480041114523	0.0	1.0197578995109784	-0.5112981559571779	0.0	0.9361134228035749	-0.43587761595445534	0.0	0.8745589643132866	-0.4486833388421211	0.0	0.8991991846468147	-0.4843053234812085	0.0
93	3.1129166666666666	0.8274387941721948	-0.5828065586896167	0.0	0.8247508645611018	-0.5818247586020105	0.0	0.828697886807561	-0.7000149813076962	0.0	0.792794389861388	-0.813928385673808	0.0	0.8204783948103017	-0.8433048568208904	0.0	0.8119974611295933	-0.8450853106639968	0.0	0.7822922823887586	-0.8245256292596178	0.0	0.8328047089975175	-0.5806110560761659	0.0	0.8544696882460419	-0.6968120380693562	0.0	0.8379313254209586	-0.8098468572927797	0.0	0.8656816319126566	-0.8351887307062631	0.0	0.8592593262817038	-0.8324835947770063	0.0	0.8275407465586504	-0.8228153280689402	0.0	0.9287457949473619	-0.4711547411584551	0.0	1.0056258124015909	-0.4510018978853387	0.0	0.9785778044051856	-0.4793022674780004	0.0	0.9214814351098557	-0.4737829354900288	0.0	0.9683044937818457	-0.5003975401268138	0.0	1.0277486695337317	-0.49897398307740903	0.0	0.9210280627916566	-0.466919989182069	0.0	0.8855955889595715	-0.47267026527963224	0.0	0.9153051279625821	-0.4823620977012027	0.0
94	3.146388888888889	0.8290807387214332	-0.6276020830762664	0.0	0.8246861903576824	-0.62630787765569	0.0	0.8347463725250079	-0.743101780745976	0.0	0.7944588635015167	-0.8519391435506996	0.0	0.8249894380639009	-0.8777657888020445	0.0	0.8164019843580452	-0.8802214944499772	0.0	0.7853903153444615	-0.8622421525491215	0.0	0.8359023486081597	-0.6257761085452322	0.0	0.8673200327297267	-0.7399021979376945	0.0	0.8468205640893999	-0.8488284581952441	0.0	0.8711427841166249	-0.8711016856524569	0.0	0.8654310134711647	-0.8695015098892768	0.0	0.8359589746110024	-0.8614861805110833	0.0	0.9132418367230217	-0.4998998983648726	0.0	0.9861136395096598	-0.4701271316608873	0.0	0.9637760442047019	-0.5002088500772652	0.0	0.9057062139469022	-0.5015676303318325	0.0	0.9637007113423961	-0.5094547734397986	0.0	1.0228125696076482	-0.4866728272692456	0.0	0.9077377276609818	-0.49912866208339085	0.0	0.9040191585407058	-0.4959125682023912	0.0	0.936681460422037	-0.48203231803876667	0.0
95	3.1798611111111112	0.8312164859747908	-0.6632183191622274	0.0	0.8250227309047168	-0.6620346965106269	0.0	0.8431076386290024	-0.7756338569142366	0.0	0.7942506458467516	-0.8772353038201859	0.0	0.8263892196808503	-0.9016509190807321	0.0	0.8178968829297492	-0.9038478042753394	0.0	0.7856732471267202	-0.886522567090819	0.0	0.8397582408106341	-0.6619112429644934	0.0	0.8787395841171983	-0.7718257899082628	0.0	0.8488122889990494	-0.8752973700205494	0.0	0.8701328729336376	-0.8960814031510436	0.0	0.8650809742742326	-0.8949106389850822	0.0	0.836339830962491	-0.8874360514113987	0.0	0.9004471945319944	-0.5262670778019914	0.0	0.9694755805452424	-0.48987136490192834	0.0	0.9510039163784519	-0.5209243917850407	0.0	0.891501840129528	-0.5269432721209919	0.0	0.9547906060504299	-0.5188302082686199	0.0	1.0096257008042073	-0.4788905773348222	0.0	0.8968720400630387	-0.528339990358802	0.0	0.9219778152430577	-0.516279716822817	0.0	0.9553875865503311	-0.48441989158624316	0.0
96	3.2133333333333334	0.8329021140277666	-0.6872625239182153	0.0	0.8251721091634177	-0.6865152512154167	0.0	0.8547257077597792	-0.794819742019029	0.0	0.7941156534389078	-0.8876271613268907	0.0	0.8257340081989097	-0.9127309587289405	0.0	0.8178684717215243	-0.9140879636959987	0.0	0.7850603975309145	-0.8955731104597118	0.0	0.8433337773440754	-0.6862591746127117	0.0	0.8892583242072929	-0.7890231820976269	0.0	0.8472377296513305	-0.886637584811897	0.0	0.8663527106839177	-0.9068848645502189	0.0	0.8616178128482919	-0.9055688071976802	0.0	0.8320018800038638	-0.8986173914730036	0.0	0.8910907037047723	-0.5465958407788132	0.0	0.9575790452644294	-0.5068651523997164	0.0	0.9414095641444739	-0.5384834575671394	0.0	0.8803813732364725	-0.5466739837025119	0.0	0.9439737185313016	-0.5288505552016861	0.0	0.9942271401688332	-0.4778584074795873	0.0	0.888475838805679	-0.5504242671969946	0.0	0.9329508631509126	-0.5325042093368011	0.0	0.9667235899442123	-0.4896712246003206	0.0
